<?xml version="1.0" encoding="UTF-8" standalone="no"?>
<!-- Created with Inkscape (http://www.inkscape.org/) -->

<svg
   version="1.1"
   id="svg2"
   width="1056"
   height="485.39999"
   viewBox="0 0 1056 485.39999"
   sodipodi:docname="the crane_Mesa de trabajo 1.eps"
   xmlns:inkscape="http://www.inkscape.org/namespaces/inkscape"
   xmlns:sodipodi="http://sodipodi.sourceforge.net/DTD/sodipodi-0.dtd"
   xmlns="http://www.w3.org/2000/svg"
   xmlns:svg="http://www.w3.org/2000/svg">
  <defs
     id="defs6" />
  <sodipodi:namedview
     id="namedview4"
     pagecolor="#ffffff"
     bordercolor="#000000"
     borderopacity="0.25"
     inkscape:showpageshadow="2"
     inkscape:pageopacity="0.0"
     inkscape:pagecheckerboard="0"
     inkscape:deskcolor="#d1d1d1" />
  <g
     id="g8"
     inkscape:groupmode="layer"
     inkscape:label="ink_ext_XXXXXX"
     transform="matrix(1.3333333,0,0,-1.3333333,0,485.4)">
    <g
       id="g10"
       transform="scale(0.1)">
      <path
         d="m 4866.85,2545.31 h -221.47 l 39.97,197.68 h 697.86 l -39.97,-197.68 H 5121.79 L 5010.52,1986.8 h -254.94 l 111.27,558.51"
         style="fill:#68228d;fill-opacity:1;fill-rule:nonzero;stroke:none"
         id="path12" />
      <path
         d="M 6194.5,2742.99 6043.26,1986.8 h -254.94 l 56.18,278.71 h -235.51 l -56.17,-278.71 h -254.94 l 151.24,756.19 h 254.94 l -54.01,-267.9 h 235.5 l 54.01,267.9 h 254.94"
         style="fill:#68228d;fill-opacity:1;fill-rule:nonzero;stroke:none"
         id="path14" />
      <path
         d="m 6503.67,2550.7 -17.27,-88.57 h 319.75 l -36.73,-183.65 h -320.84 l -19.44,-99.39 h 379.17 L 6769.42,1986.8 H 6140.7 l 151.24,756.19 h 614.68 l -38.89,-192.29 h -364.06"
         style="fill:#68228d;fill-opacity:1;fill-rule:nonzero;stroke:none"
         id="path16" />
      <path
         d="m 2223.76,1336.77 c 0,381.64 283.91,650.03 685.73,650.03 207.88,0 378.53,-77.56 457.65,-217.19 l -263.73,-206.34 c -46.54,80.67 -117.91,127.22 -217.2,127.22 -172.21,0 -293.22,-136.53 -293.22,-330.44 0,-127.23 88.44,-212.55 223.41,-212.55 85.32,0 167.55,35.68 242.02,125.66 l 215.64,-206.34 C 3142.19,905.492 2980.84,851.18 2780.71,851.18 c -336.65,0 -556.95,197.02 -556.95,485.59"
         style="fill:#68228d;fill-opacity:1;fill-rule:nonzero;stroke:none"
         id="path18" />
      <path
         d="m 3878.77,1594.45 h -109.95 l -45.93,-228.28 h 135.01 c 90.47,0 143.37,47.33 143.37,129.45 0,69.59 -47.33,98.83 -122.5,98.83 z m 192.09,-437.06 162.85,-283.949 H 3892.7 l -137.8,244.969 h -80.73 l -48.72,-244.969 h -328.48 l 194.87,974.319 h 437.05 c 257.5,0 405.04,-118.3 405.04,-320.13 0,-173.98 -97.44,-307.59 -263.07,-370.24"
         style="fill:#68228d;fill-opacity:1;fill-rule:nonzero;stroke:none"
         id="path20" />
      <path
         d="m 4997.87,1279.88 -47.32,249.14 -143.36,-249.14 z m 45.94,-236.63 h -371.63 l -97.43,-169.809 h -346.59 l 620.79,974.319 h 322.92 l 231.04,-974.319 h -327.09 l -32.01,169.809"
         style="fill:#68228d;fill-opacity:1;fill-rule:nonzero;stroke:none"
         id="path22" />
      <path
         d="M 6611.09,1847.76 6416.23,873.441 h -270.02 l -279.76,453.769 -90.48,-453.769 h -320.14 l 194.86,974.319 h 270.03 l 279.77,-453.74 90.48,453.74 h 320.12"
         style="fill:#68228d;fill-opacity:1;fill-rule:nonzero;stroke:none"
         id="path24" />
      <path
         d="m 7042.59,1600.01 -22.27,-114.12 h 411.99 L 7385,1249.25 h -413.4 l -25.05,-128.04 H 7435.1 L 7385,873.441 h -810.08 l 194.87,974.319 h 791.98 l -50.11,-247.75 h -469.07"
         style="fill:#68228d;fill-opacity:1;fill-rule:nonzero;stroke:none"
         id="path26" />
      <path
         d="m 325.414,1696.24 c -0.008,-0.14 -0.016,-0.27 -0.019,-0.4 0.011,0.13 0.027,0.26 0.035,0.4 h -0.016"
         style="fill:#000000;fill-opacity:1;fill-rule:nonzero;stroke:none"
         id="path28" />
      <path
         d="m 523.492,1967.78 c 0,8.71 0.785,17.18 2.238,24.07 l 23.86,113.1 c 8.64,44.34 23.711,63.82 36.269,72.31 h 59.145 c 2.418,0 4.383,-7.21 4.383,-16.11 V 1872.5 c 0,-8.9 -1.965,-16.11 -4.383,-16.11 H 527.867 c -2.418,0 -4.375,7.21 -4.375,16.11 z m 180.235,178.7 c 0,23.02 7.66,45.4 21.777,63.59 l 231.898,298.79 c 84.058,117.14 230.528,168.57 352.578,191.02 h 574.92 c 23.5,0 42.56,-19.05 42.56,-42.55 v -762.56 c 0,-23.49 -19.06,-42.55 -42.56,-42.55 H 746.273 c -23.5,0 -42.546,19.06 -42.546,42.55 z M 1877.75,1514.51 c 0,-17.08 -13.85,-30.93 -30.94,-30.93 v 0 c -17.08,0 -30.93,13.85 -30.93,30.93 v 126.17 c 0,17.09 13.85,30.94 30.93,30.94 v 0 c 17.09,0 30.94,-13.85 30.94,-30.94 z M 529.645,1639.3 380.941,1381.77 c -9.23,-15.89 -27.113,-21.86 -42.781,-17.65 11.488,-86.33 24.852,-143.01 24.852,-143.01 H 2113.61 l 13.05,1719.43 c 0.18,22.79 -19.22,40.8 -41.93,38.87 -89.67,-7.61 -314.57,-28.25 -602.44,-65.95 -376.08,-49.25 -494.724,-132.08 -586.505,-237.29 -91.781,-105.21 -342.5,-380.55 -494.722,-676.04 -46.438,-90.16 -67.981,-197.8 -75.633,-303.89 h 171.363 c 29.227,0 47.465,-31.68 32.852,-56.94"
         style="fill:#000000;fill-opacity:1;fill-rule:nonzero;stroke:none"
         id="path30" />
      <path
         d="m 325.313,1694.33 c 0.035,0.5 0.054,1 0.082,1.51 -0.04,-0.51 -0.098,-1.01 -0.129,-1.51 h 0.047"
         style="fill:#000000;fill-opacity:1;fill-rule:nonzero;stroke:none"
         id="path32" />
      <path
         d="M 7587.25,787.711 H 2126.95 V 1207.81 H 377.168 c -58.102,0 -105.215,-47.12 -105.215,-105.22 v -46.99 c 0,-215.1 174.418,-389.518 389.516,-389.518 h 216.269 c 2.457,239.648 197.572,433.238 437.802,433.238 240.35,0 435.46,-193.59 437.91,-433.238 h 268.29 c 0.25,0 0.48,0.039 0.73,0.039 h 5564.78 c 33.43,0 60.8,27.348 60.8,60.801 0,33.437 -27.37,60.789 -60.8,60.789"
         style="fill:#000000;fill-opacity:1;fill-rule:nonzero;stroke:none"
         id="path34" />
      <path
         d="m 1672.09,668.332 c -3.66,193.809 -161.81,349.818 -356.5,349.818 -194.69,0 -352.84,-156.009 -356.504,-349.818 h 713.004"
         style="fill:#000000;fill-opacity:1;fill-rule:nonzero;stroke:none"
         id="path36" />
      <path
         d="m 3752.33,2216.29 c 6.79,-1.05 11.22,-1.75 11.22,-1.75 28.65,-3.16 73.54,-9.01 126.73,-16.02 -1.05,-0.23 -2.11,-0.47 -3.16,-0.7 -0.82,-0.12 -1.64,-0.35 -2.45,-0.58 -1.29,-0.24 -2.69,-0.59 -4.09,-0.82 -0.47,-0.12 -0.94,-0.24 -1.41,-0.35 -0.11,0 -0.23,-0.12 -0.23,-0.12 -0.23,0 -0.59,-0.12 -0.82,-0.12 -1.4,-0.35 -2.81,-0.7 -4.21,-1.05 -0.81,-0.12 -1.75,-0.35 -2.57,-0.58 -1.29,-0.36 -2.57,-0.59 -3.86,-0.94 -0.35,-0.12 -0.58,-0.12 -0.93,-0.24 -0.71,-0.11 -1.4,-0.35 -2.11,-0.46 -1.52,-0.47 -3.04,-0.82 -4.44,-1.17 -0.93,-0.24 -1.87,-0.47 -2.8,-0.7 -1.53,-0.35 -2.93,-0.7 -4.45,-1.05 -0.93,-0.23 -1.87,-0.47 -2.8,-0.82 -1.52,-0.35 -3.04,-0.7 -4.45,-1.05 -1.05,-0.36 -2.1,-0.59 -3.03,-0.82 -0.36,-0.12 -0.71,-0.24 -1.05,-0.35 -1.06,-0.24 -2.23,-0.59 -3.28,-0.82 -1.17,-0.35 -2.34,-0.59 -3.39,-0.93 -1.4,-0.36 -2.69,-0.71 -4.09,-1.06 -0.24,-0.12 -0.59,-0.23 -0.94,-0.23 -16.25,-4.45 -32.73,-9.12 -48.39,-13.8 -0.24,0 -0.47,-0.11 -0.59,-0.11 -4.09,-1.29 -8.06,-2.46 -11.92,-3.63 -0.47,-0.11 -0.82,-0.23 -1.29,-0.35 -3.86,-1.17 -7.6,-2.34 -11.34,-3.51 -0.12,0 -0.23,-0.11 -0.35,-0.11 -3.51,-1.06 -6.78,-2.11 -10.17,-3.16 -0.12,-0.11 -0.24,-0.11 -0.46,-0.23 -0.24,0 -0.59,-0.12 -0.94,-0.24 -3.16,-1.05 -6.32,-2.1 -9.24,-3.04 -0.11,0 -0.23,0 -0.23,-0.11 -1.52,4.09 -3.04,8.3 -4.44,12.27 -0.59,1.52 -1.17,3.04 -1.87,4.44 -3.28,7.84 -6.67,16.02 23.84,44.31 z m 377.83,-49.1 c -8.18,-3.74 -13.09,-10.64 -16.48,-19.52 -0.47,-1.17 -1.05,-2.57 -1.64,-3.98 -0.23,-0.93 -0.7,-1.87 -1.05,-2.92 -0.93,-2.22 -1.87,-4.67 -2.92,-7.13 -41.16,5.61 -90.36,8.3 -121.47,9.47 -1.86,6.31 -3.62,12.16 -5.25,17.3 -0.47,1.64 -0.94,3.27 -1.41,4.8 -2.92,9.46 -5.26,16.71 -7.36,22.44 51.43,-6.78 105.79,-13.91 157.58,-20.46 z m 228.19,-24.2 c 1.52,-4.56 3.63,-10.63 5.5,-16.01 0.47,-1.17 0.94,-2.22 1.4,-3.39 2.46,-5.97 4.92,-12.16 -18,-33.2 -36.48,17.65 -88.38,41.5 -135.84,61.96 -6.08,2.68 -11.81,4.91 -17.18,6.9 71.66,-8.66 132.32,-15.09 164.12,-16.26 z M 3235.03,1990.84 h 111.08 c -7.53,9.96 -15.47,19.91 -23.86,29.76 -0.58,0.58 -1.05,1.16 -1.52,1.75 -2.92,3.27 -5.84,6.54 -8.77,9.82 -0.81,0.93 -1.63,1.75 -2.45,2.69 -2.92,3.27 -6.08,6.54 -9.12,9.82 -0.7,0.7 -1.28,1.4 -1.99,1.99 -25.71,26.76 -54.71,52.02 -87.09,74.69 1.52,2.58 2.81,4.8 3.86,6.67 1.64,-0.24 3.16,-0.47 4.79,-0.7 l 182.84,293.89 c 42.27,-87.46 143.01,-296 206.49,-430.38 h 72.36 l -105.96,224.64 77.63,34.6 c 8.53,-9.24 16.48,-15.9 22.91,-18.01 12.51,-4.21 32.85,-8.3 50.74,-11.57 -26.31,-27.94 -23.73,-42.44 -17.66,-56.7 0.47,-1.17 0.94,-2.22 1.29,-3.39 1.52,-3.86 2.92,-7.95 4.33,-11.92 -1.64,-0.59 -3.28,-1.17 -4.8,-1.87 -28.87,-11.58 -35.65,-24.79 -35.65,-34.49 0,-0.94 0.11,-1.99 0.23,-2.92 0,-0.12 0,-0.12 0,-0.12 0.12,-0.82 0.24,-1.51 0.47,-2.22 0,-0.23 0.12,-0.35 0.12,-0.47 0.12,-0.58 0.34,-1.17 0.46,-1.75 l 0.35,-0.7 c 0.24,-0.35 0.35,-0.82 0.47,-1.17 0.35,-0.59 0.59,-1.17 0.82,-1.64 0.23,-0.23 0.47,-0.58 0.58,-0.93 0.12,-0.12 0.12,-0.24 0.12,-0.35 0.23,-0.24 0.35,-0.47 0.47,-0.82 0,-0.12 0.12,-0.12 0.12,-0.23 0.23,-0.36 0.35,-0.71 0.58,-1.18 0,-0.11 0.11,-0.23 0.11,-0.35 0.12,-0.35 0.36,-0.58 0.47,-0.93 0,-0.12 0.12,-0.35 0.24,-0.47 0.12,-0.46 0.35,-0.81 0.47,-1.4 0.11,-0.12 0.23,-0.35 0.35,-0.59 0.12,-0.35 0.23,-0.7 0.47,-1.16 0,-0.24 0.11,-0.47 0.23,-0.71 0.23,-0.58 0.47,-1.05 0.7,-1.75 0.12,-0.23 0.12,-0.35 0.23,-0.59 0.24,-0.58 0.47,-1.16 0.71,-1.87 0.11,-0.23 0.23,-0.58 0.46,-0.93 0.12,-0.7 0.47,-1.29 0.7,-1.99 0.12,-0.23 0.12,-0.46 0.24,-0.82 0.35,-0.81 0.7,-1.63 1.05,-2.57 0.35,-1.05 0.82,-2.1 1.17,-3.15 0.93,-2.34 1.87,-4.8 2.92,-7.48 0.35,-0.94 0.7,-1.87 1.05,-2.81 0.24,-0.59 0.36,-1.06 0.59,-1.52 1.28,-3.39 2.69,-7.13 4.2,-11.23 0.24,-0.46 0.47,-0.93 0.59,-1.4 1.17,-3.03 2.34,-6.08 3.62,-9.46 1.41,-3.4 2.69,-6.9 4.21,-10.64 4.65,-11.91 10.24,-26.14 16.85,-42.97 h 671.51 c 1.23,2.71 2.52,5.48 3.7,8.13 0,0.12 0.12,0.24 0.24,0.35 0,0.24 0.11,0.35 0.11,0.58 1.99,4.33 3.98,8.66 5.73,12.87 17.42,40.67 9.35,44.18 -18.59,59.26 -5.38,2.93 -12.62,6.66 -21.16,10.88 24.08,23.61 22.34,35.3 17.54,46.87 -0.35,0.82 -0.7,1.64 -1.05,2.58 -1.17,3.38 -2.57,7.24 -3.74,10.63 0.23,0 0.58,0 0.82,0.12 12.86,1.17 25.84,1.87 38.34,2.92 0.46,-1.4 1.05,-3.04 1.52,-4.44 0.12,-0.24 0.23,-0.59 0.35,-0.93 0.82,-2.46 1.52,-4.8 2.33,-7.02 0.12,-0.46 0.24,-0.82 0.36,-1.17 9.82,-29.69 11.92,-38.58 20.81,-73.18 6.36,-25.11 3.62,-46.89 -2.41,-68.45 h 239.76 l 79.44,415.01 c 0,0 -36.37,-1.12 -115.95,0 -79.58,1.12 -82.07,-6.26 -82.07,-6.26 -2.1,-0.7 -4.1,-1.63 -6.2,-2.92 -25.83,-16.37 -23.26,-31.45 -23.26,-31.45 0,0 -0.11,-0.12 -0.35,-0.23 -2.92,-2.69 -24.2,-22.91 -25.25,-38.11 -0.35,-5.03 0.58,-10.76 2.58,-17.07 -3.75,-1.87 -7.61,-3.39 -11.47,-4.79 -0.23,0.47 -0.58,1.05 -0.81,1.52 -0.7,1.17 -1.41,2.46 -2.23,3.62 -0.46,0.94 -1.05,1.76 -1.63,2.57 -0.82,1.29 -1.75,2.57 -2.69,3.86 -0.59,0.82 -1.16,1.64 -1.75,2.45 -1.05,1.29 -2.11,2.7 -3.16,4.1 -0.58,0.7 -1.28,1.4 -1.87,2.1 -1.29,1.52 -2.57,3.04 -3.97,4.56 -0.36,0.59 -0.82,1.06 -1.29,1.52 -3.63,3.98 -7.48,8.07 -11.93,12.39 -41.84,41.85 -244.21,197.21 -416.99,242.58 -149.28,39.16 -313.17,83.35 -423.41,46.29 -0.71,-0.23 -1.29,-0.35 -1.99,-0.59 -2.22,-0.82 -4.56,-1.63 -6.78,-2.57 -1.4,-0.47 -2.8,-1.05 -4.21,-1.64 -1.99,-0.81 -3.86,-1.63 -5.73,-2.45 -1.63,-0.82 -3.39,-1.64 -5.14,-2.46 -1.64,-0.7 -3.16,-1.52 -4.79,-2.33 -1.99,-1.06 -3.98,-2.22 -6.08,-3.39 -1.17,-0.7 -2.46,-1.29 -3.63,-2.1 -3.15,-1.87 -6.31,-3.98 -9.35,-6.08 -30.51,-21.52 -40.33,-54.6 -39.63,-90.25 l -18.94,27.23 c 44.08,68.28 192.77,299.16 206.57,320.78 2.33,3.75 6.43,10.06 14.84,15.9 0.47,-0.47 0.71,-0.93 1.18,-1.52 0,0 9.46,7.02 27.58,11.46 0.47,-0.7 0.82,-1.41 1.29,-1.99 5.84,1.17 12.63,2.11 19.87,2.58 0.82,-0.12 1.52,0.93 2.22,2.92 2.81,0.23 5.85,0.35 8.89,0.35 -0.23,-0.94 -0.35,-1.99 -0.59,-3.04 -4.56,-29.34 3.86,-49.1 24.44,-66.29 21.04,-17.53 55.88,-11.69 95.39,-18.58 39.63,-7.02 55.3,-25.61 63.48,-36.13 8.07,-10.4 30.16,-4.09 26.77,15.08 -0.24,1.29 -0.59,2.58 -0.94,3.75 -0.12,0.23 -0.24,0.58 -0.35,0.82 -0.35,0.92 -0.71,1.75 -1.05,2.56 -0.11,0.35 -0.35,0.59 -0.47,0.94 -0.46,0.82 -0.93,1.64 -1.4,2.46 -0.24,0.23 -0.35,0.46 -0.59,0.7 -0.58,0.81 -1.17,1.64 -1.86,2.45 -0.24,0.12 -0.35,0.35 -0.59,0.58 -0.7,0.82 -1.52,1.64 -2.46,2.34 -0.12,0.24 -0.35,0.36 -0.46,0.47 -0.94,0.82 -1.99,1.64 -3.16,2.46 -0.12,0.11 -0.24,0.23 -0.35,0.34 -1.17,0.83 -2.46,1.65 -3.86,2.46 0,0.12 -0.12,0.12 -0.24,0.24 -11.57,6.89 -29.34,12.98 -54.94,19.99 -43.13,11.57 -68.73,1.17 -93.64,12.15 -0.11,0.12 -0.23,0.12 -0.35,0.24 -24.66,11.1 -23.49,33.55 -20.69,47.46 0.23,0.82 0.35,1.52 0.47,2.22 1.64,-0.23 3.39,-0.47 5.14,-0.7 0.7,-5.61 1.99,-10.87 3.74,-15.67 0.12,-0.35 0.24,-0.7 0.36,-1.05 0.58,-1.28 1.16,-2.68 1.75,-3.86 l 0.7,-1.4 c 0.58,-1.05 1.17,-2.1 1.76,-3.15 0.35,-0.47 0.58,-0.94 0.93,-1.41 0.7,-0.93 1.29,-1.75 1.99,-2.57 0.35,-0.47 0.7,-0.93 1.05,-1.4 l 2.1,-2.1 c 0.47,-0.47 0.82,-0.83 1.29,-1.18 0.7,-0.7 1.52,-1.28 2.34,-1.86 0.47,-0.24 0.93,-0.59 1.4,-0.94 0.82,-0.47 1.75,-0.93 2.69,-1.4 0.47,-0.24 0.81,-0.47 1.28,-0.59 1.4,-0.58 2.81,-1.05 4.21,-1.4 14.85,-3.39 30.63,6.19 41.97,23.38 72.48,-16.25 97.73,-27.47 99.83,-28.52 5.03,-2.69 16.61,-7.02 22.22,-7.02 12.85,0 18.82,9.94 24.89,21.28 0.94,1.64 1.76,3.39 2.58,5.02 0.12,0.24 0.24,0.47 0.35,0.82 0.7,1.52 1.4,3.16 1.99,4.67 0.11,0.36 0.23,0.59 0.23,0.95 0.59,1.51 1.17,3.15 1.52,4.67 0,0.23 0.12,0.35 0.12,0.58 0.81,3.28 1.16,6.43 0.93,9.48 v 0.46 c -0.12,1.52 -0.47,2.92 -0.81,4.33 -0.12,0.11 -0.12,0.23 -0.12,0.46 -0.47,1.41 -1.17,2.69 -1.87,3.98 -0.12,0 -0.12,0.12 -0.12,0.12 -1.87,2.92 -4.68,5.61 -8.77,7.83 -3.04,1.52 -37.64,18.12 -122.63,37.76 11.34,1.4 20.81,2.69 27.47,3.5 0.24,0 0.47,0 0.71,0.12 2.33,0.23 4.32,0.47 5.96,0.7 2.68,0.35 4.32,0.58 4.56,0.58 16.83,2.11 28.75,17.43 26.65,34.26 -0.23,1.98 -0.7,3.97 -1.29,5.85 -0.46,1.4 -1.05,2.57 -1.75,3.85 -0.12,0.47 -0.35,0.94 -0.59,1.4 -5.84,10.64 -17.76,17.19 -30.62,15.67 -1.29,-0.23 -8.07,-1.05 -18.59,-2.34 -1.76,-0.23 -3.63,-0.58 -5.5,-0.81 -0.46,0 -0.81,0 -1.16,-0.12 -23.62,-3.04 -60.79,-7.95 -98.9,-13.45 -0.12,0 -0.24,-0.12 -0.35,-0.12 -0.12,0 -0.12,0 -0.12,0 -0.47,0.83 -0.94,1.53 -1.4,2.12 -0.24,0.34 -0.36,0.57 -0.59,0.81 -0.46,0.7 -0.93,1.28 -1.4,1.87 -0.24,0.23 -0.47,0.35 -0.58,0.58 -0.71,0.82 -1.41,1.52 -2.22,2.23 -0.12,0.11 -0.24,0.23 -0.36,0.35 -0.58,0.46 -1.17,0.93 -1.75,1.4 -0.35,0.23 -0.59,0.47 -0.94,0.7 -0.11,0 -0.11,0.12 -0.23,0.12 -0.24,0.11 -0.35,0.23 -0.58,0.35 -0.47,0.23 -0.82,0.35 -1.17,0.46 -0.24,0.12 -0.36,0.24 -0.59,0.24 0,0 0,0 -0.11,0 -0.35,0.12 -0.59,0.12 -0.82,0.12 h -0.35 c -2.92,-0.36 -4.68,-6.9 -5.26,-17.07 l 5.02,0.82 0.12,-0.12 c -8.42,-1.28 -16.72,-2.57 -24.78,-3.86 -0.47,-0.11 -0.94,-0.11 -1.29,-0.23 -3.86,-0.58 -7.72,-1.17 -11.34,-1.87 -0.12,0 -0.12,0 -0.12,0 -1.16,-0.12 -2.22,-0.35 -3.38,-0.47 -2.81,27.24 -0.47,55.17 4.32,81.01 5.49,-11.22 12.74,-19.29 21.74,-23.14 1.64,-0.82 3.51,-1.52 5.38,-1.99 2.11,-0.47 4.33,-0.82 6.55,-0.82 34.13,-0.94 73.65,51.67 90.95,122.98 1.05,4.44 1.98,8.77 2.8,13.1 0.24,1.4 0.47,2.68 0.71,4.09 0.58,3.03 1.05,5.84 1.52,8.76 0.23,1.64 0.46,3.16 0.58,4.8 0.47,2.69 0.7,5.37 0.93,7.95 0.24,1.63 0.36,3.15 0.59,4.79 0.23,2.69 0.35,5.38 0.46,8.07 0.12,1.4 0.24,2.8 0.24,4.09 0.23,3.85 0.23,7.6 0.23,11.22 0,1.4 -0.11,2.81 -0.11,4.21 -0.12,2.33 -0.12,4.55 -0.36,6.78 -0.11,1.75 -0.23,3.51 -0.34,5.14 -0.12,1.87 -0.35,3.63 -0.59,5.38 -0.12,1.75 -0.35,3.62 -0.58,5.26 -0.24,1.64 -0.59,3.04 -0.82,4.56 -0.35,1.87 -0.59,3.63 -1.06,5.38 -0.23,1.17 -0.46,2.33 -0.81,3.5 -1.64,6.55 -3.63,12.51 -5.96,17.89 -0.35,0.7 -0.59,1.52 -1.06,2.34 -0.7,1.52 -1.52,3.04 -2.34,4.44 -0.35,0.7 -0.81,1.4 -1.16,2.11 -0.94,1.4 -1.76,2.8 -2.69,4.09 -0.47,0.46 -0.94,1.05 -1.29,1.52 -1.05,1.28 -2.1,2.57 -3.16,3.73 -4.9,5.03 -10.51,8.42 -16.71,9.95 -16.72,4.09 -35.19,-5.96 -52.02,-25.61 -2.34,-2.8 -4.68,-5.61 -6.9,-8.76 -0.12,0 -0.12,-0.12 -0.12,-0.12 -2.22,-3.04 -4.44,-6.2 -6.55,-9.47 -0.11,-0.24 -0.23,-0.35 -0.34,-0.59 -1.99,-3.15 -3.86,-6.54 -5.85,-9.93 -0.23,-0.35 -0.35,-0.71 -0.58,-1.18 -1.76,-3.15 -3.51,-6.54 -5.15,-10.05 -0.35,-0.58 -0.7,-1.16 -0.93,-1.87 -1.52,-3.27 -3.04,-6.54 -4.45,-9.94 -0.47,-0.93 -0.81,-1.86 -1.16,-2.8 -1.41,-3.15 -2.58,-6.54 -3.86,-9.93 -0.35,-1.18 -0.82,-2.23 -1.29,-3.4 -1.17,-3.39 -2.22,-6.89 -3.27,-10.4 -0.47,-1.17 -0.82,-2.34 -1.17,-3.62 -1.4,-4.68 -2.69,-9.47 -3.86,-14.5 -9.12,-37.52 -10.28,-73.18 -4.91,-100.77 -8.18,-33.31 -13.56,-72.36 -9.35,-110.71 -1.4,-0.22 -2.81,-0.46 -4.09,-0.69 -0.7,-0.12 -1.29,-0.24 -1.87,-0.36 -3.16,-0.58 -6.31,-1.16 -9.24,-1.75 -0.35,-0.12 -0.81,-0.12 -1.17,-0.23 -2.57,-0.47 -4.91,-1.05 -7.25,-1.52 -0.58,-0.12 -1.28,-0.24 -1.87,-0.35 -2.57,-0.59 -5.14,-1.18 -7.36,-1.64 -10.87,-2.57 -19.52,-4.33 -27.12,-5.85 -3.04,-0.58 -5.84,-1.17 -8.53,-1.75 -0.47,-0.12 -0.94,-0.23 -1.41,-0.35 -0.11,0 -0.11,0 -0.11,0 -5.62,-1.17 -10.64,-2.45 -15.2,-3.98 -0.12,0 -0.24,-0.11 -0.35,-0.11 -2.34,-0.82 -4.56,-1.64 -6.66,-2.57 h -0.12 c -1.64,-0.7 -3.16,-1.52 -4.68,-2.23 -0.23,-0.11 -0.47,-0.35 -0.7,-0.47 -1.4,-0.7 -2.69,-1.51 -3.98,-2.33 -0.23,-0.12 -0.46,-0.35 -0.7,-0.47 -1.51,-1.05 -2.92,-2.1 -4.32,-3.16 0,-0.11 -0.12,-0.11 -0.12,-0.11 -1.52,-1.29 -3.04,-2.57 -4.56,-4.09 -0.12,0 -0.12,-0.12 -0.23,-0.23 -1.29,-1.29 -2.69,-2.58 -3.98,-4.1 -0.46,-0.47 -0.81,-0.94 -1.28,-1.4 -0.94,-1.17 -1.99,-2.45 -3.16,-3.74 -0.47,-0.59 -0.93,-1.17 -1.4,-1.87 -1.05,-1.29 -2.11,-2.69 -3.27,-4.21 -0.47,-0.59 -0.94,-1.29 -1.41,-1.99 -1.52,-2.1 -3.16,-4.33 -4.79,-6.78 -14.85,-22.32 -88.73,-137.48 -139.35,-216.27 -14.85,7.48 -29.69,13.68 -39.74,14.85 -3.4,0.47 -6.32,0.7 -9.24,0.94 -1.05,0 -1.99,0.11 -3.04,0.11 -1.63,0.12 -3.39,0.12 -4.91,0.12 h -3.27 c -1.06,-0.12 -2.22,-0.12 -3.28,-0.23 -1.17,-0.12 -2.21,-0.12 -3.27,-0.36 -0.7,0 -1.4,-0.23 -1.99,-0.35 -5.84,-1.05 -9.7,-3.04 -11.8,-5.73 -0.47,-0.58 -0.82,-1.16 -1.05,-1.75 -0.47,-0.7 -0.82,-1.52 -0.94,-2.34 -1.52,-7.6 -7.72,-37.76 -10.41,-56.93 -4.55,8.07 -9.23,15.31 -13.44,21.75 -25.6,39.63 -55.76,60.55 -76.81,68.62 -10.75,4.2 -43.72,10.64 -73.17,15.78 -0.59,0.11 -1.17,0.23 -1.76,0.23 -0.7,0.12 -1.28,0.24 -1.98,0.35 -1.06,0.24 -2.11,0.47 -3.16,0.59 -0.7,0.12 -1.52,0.23 -2.22,0.35 -1.05,0.23 -1.99,0.35 -3.04,0.59 -0.47,0.11 -1.05,0.11 -1.64,0.23 -1.28,0.23 -2.57,0.47 -3.86,0.7 -0.23,0 -0.58,0.12 -0.82,0.12 -1.4,0.23 -2.68,0.46 -4.09,0.7 -0.23,0 -0.46,0.12 -0.58,0.12 -1.17,0.11 -2.34,0.34 -3.51,0.58 -0.46,0 -0.93,0.11 -1.4,0.23 -0.82,0.12 -1.52,0.23 -2.34,0.35 -0.58,0.12 -1.28,0.24 -1.99,0.35 -0.69,0.12 -1.4,0.23 -2.1,0.35 -0.59,0.12 -1.17,0.12 -1.64,0.23 -0.82,0.12 -1.52,0.24 -2.1,0.36 -0.47,0.11 -0.93,0.11 -1.4,0.23 -1.99,0.35 -3.86,0.59 -5.38,0.82 -0.23,0.12 -0.47,0.12 -0.58,0.12 -3.16,0.47 -5.15,0.82 -6.2,1.05 -0.35,0 -0.59,0 -0.59,0 0,0 -0.11,-0.11 -0.35,-0.35 v -0.12 c -0.12,-0.11 -0.12,-0.11 -0.23,-0.23 -0.12,-0.12 -0.12,-0.23 -0.23,-0.35 0,-0.12 -0.12,-0.12 -0.12,-0.24 -0.12,-0.11 -0.12,-0.23 -0.23,-0.35 -20.35,-0.94 -31.1,-43.83 -40.45,-102.17 -2.69,-16.6 -5.5,-38.93 -7.48,-63.01 -0.12,-1.4 -0.24,-2.92 -0.36,-4.32 -0.11,-1.41 -0.23,-2.7 -0.35,-4.1 -0.11,-1.87 -0.23,-3.74 -0.35,-5.61 -0.12,-1.52 -0.23,-3.16 -0.35,-4.79 -0.12,-2.69 -0.23,-5.26 -0.46,-7.95 0,-1.99 -0.12,-3.86 -0.24,-5.73 0,-1.63 -0.12,-3.27 -0.12,-4.91 -0.11,-1.99 -0.11,-3.85 -0.23,-5.73 0,-1.4 -0.12,-2.92 -0.12,-4.32 0,-3.04 -0.11,-6.08 -0.11,-9.12 V 2538 c 0,-2.1 0.11,-4.2 0.11,-6.19 0,-1.29 0,-2.57 0.12,-3.86 0,-3.04 0.12,-6.08 0.23,-9 0.12,-0.94 0.12,-1.87 0.24,-2.81 0.12,-2.33 0.23,-4.56 0.35,-6.78 0.11,-1.05 0.23,-2.21 0.23,-3.27 0.23,-2.57 0.47,-5.14 0.82,-7.6 0,-0.58 0.12,-1.29 0.12,-1.87 0.35,-2.57 0.7,-5.14 1.16,-7.6 0.12,-0.93 0.24,-1.75 0.36,-2.57 0.35,-2.22 0.82,-4.21 1.17,-6.19 0.12,-0.59 0.23,-1.29 0.34,-1.87 0.59,-2.46 1.18,-4.8 1.87,-7.02 0.12,-0.59 0.36,-1.17 0.47,-1.87 0.59,-1.75 1.18,-3.39 1.76,-5.03 0.23,-0.58 0.47,-1.05 0.58,-1.63 0.82,-1.99 1.64,-3.86 2.58,-5.62 0.23,-0.23 0.35,-0.58 0.58,-0.93 0.82,-1.4 1.64,-2.69 2.45,-3.86 0.35,-0.47 0.59,-0.82 0.94,-1.17 1.05,-1.4 2.22,-2.68 3.39,-3.74 0.12,0.59 0.23,1.06 0.35,1.64 0.7,-3.16 1.28,-4.79 1.28,-4.79 0,0 0,0 0.12,0 0,0 0,0 0.12,0 h 0.23 c 0.24,-0.82 0.36,-1.29 0.36,-1.29 0,0 8.18,0 77.97,-5.84 19.87,-1.64 37.87,-1.76 54.12,-0.59 v -0.12 l -21.16,-35.3 -133.62,-221.53 c 0,0 2.11,-2.8 6.2,-7.13 l -1.87,-3.04 c -24.32,11.45 -50.15,21.28 -77.15,29.1 0,0 0,0 0,0.12 -40.1,11.58 -82.89,19.18 -128.71,21.05 -247.72,10.52 -376.43,-85.93 -478.13,-179.68 -22.68,-20.92 -66.29,-83.23 -66.29,-83.23 l -19,-78.59 c 106.61,88.85 247.36,201.47 538.37,205.2 113.39,0 243.57,-37.68 337.63,-92.66"
         style="fill:#000000;fill-opacity:1;fill-rule:nonzero;stroke:none"
         id="path38" />
      <path
         d="M 545.574,371.449 V 567.48 h 41.75 l 75.817,-170.839 77.535,170.839 h 41.351 V 371.449 H 754.859 L 756.445,547.07 677.188,371.449 H 648.953 L 571.02,547.07 572.742,371.449 h -27.168"
         style="fill:#000000;fill-opacity:1;fill-rule:nonzero;stroke:none"
         id="path40" />
      <path
         d="m 1007.85,469.398 c 0,-24.207 6.93,-43.097 20.8,-56.668 13.87,-13.558 33.18,-20.339 57.92,-20.339 24.66,0 43.89,6.808 57.72,20.41 13.84,13.609 20.74,32.48 20.74,56.597 0,24.211 -6.93,43.114 -20.8,56.723 -13.88,13.598 -33.18,20.41 -57.92,20.41 -24.65,0 -43.9,-6.812 -57.72,-20.41 -13.83,-13.609 -20.74,-32.512 -20.74,-56.723 z m -28.768,0 c 0,31.622 9.652,56.743 28.968,75.352 19.3,18.602 45.48,27.891 78.52,27.891 32.96,0 59.07,-9.289 78.33,-27.891 19.27,-18.609 28.9,-43.73 28.9,-75.352 0,-31.628 -9.66,-56.726 -28.97,-75.277 -19.3,-18.562 -45.47,-27.84 -78.52,-27.84 -32.96,0 -59.07,9.278 -78.33,27.84 -19.269,18.551 -28.898,43.649 -28.898,75.277"
         style="fill:#000000;fill-opacity:1;fill-rule:nonzero;stroke:none"
         id="path42" />
      <path
         d="M 1469.05,541.891 V 371.449 h -27.7 V 541.891 H 1367 v 25.589 h 176.67 v -25.589 h -74.62"
         style="fill:#000000;fill-opacity:1;fill-rule:nonzero;stroke:none"
         id="path44" />
      <path
         d="m 1745.63,469.398 c 0,-24.207 6.93,-43.097 20.81,-56.668 13.87,-13.558 33.18,-20.339 57.92,-20.339 24.65,0 43.89,6.808 57.72,20.41 13.83,13.609 20.74,32.48 20.74,56.597 0,24.211 -6.94,43.114 -20.81,56.723 -13.88,13.598 -33.18,20.41 -57.92,20.41 -24.65,0 -43.89,-6.812 -57.72,-20.41 -13.83,-13.609 -20.74,-32.512 -20.74,-56.723 z m -28.76,0 c 0,31.622 9.65,56.743 28.96,75.352 19.31,18.602 45.48,27.891 78.53,27.891 32.95,0 59.06,-9.289 78.33,-27.891 19.26,-18.609 28.89,-43.73 28.89,-75.352 0,-31.628 -9.66,-56.726 -28.96,-75.277 -19.3,-18.562 -45.48,-27.84 -78.53,-27.84 -32.96,0 -59.07,9.278 -78.33,27.84 -19.27,18.551 -28.89,43.649 -28.89,75.277"
         style="fill:#000000;fill-opacity:1;fill-rule:nonzero;stroke:none"
         id="path46" />
      <path
         d="m 2119.76,437.719 h 29.29 c 0.53,-15.469 5.85,-26.93 15.97,-34.387 10.12,-7.473 25.29,-11.203 45.53,-11.203 17.32,0 30.7,2.883 40.16,8.621 9.45,5.742 14.18,13.922 14.18,24.52 0,7.691 -2.59,13.66 -7.76,17.96 -5.16,4.282 -13.8,7.489 -25.9,9.602 l -48.52,8.75 c -19.7,3.438 -34.08,9.34 -43.13,17.68 -9.06,8.359 -13.59,19.73 -13.59,34.148 0,18.891 7.16,33.5 21.47,43.789 14.31,10.313 34.73,15.442 61.24,15.442 25,0 44.21,-5.371 57.65,-16.102 13.43,-10.73 20.28,-26.078 20.54,-46.047 h -27.7 c -0.97,12.457 -5.72,21.668 -14.25,27.629 -8.53,5.969 -21.31,8.949 -38.37,8.949 -16.61,0 -29.31,-2.679 -38.1,-8.031 -8.8,-5.34 -13.19,-13.051 -13.19,-23.117 0,-7.34 2.5,-12.961 7.49,-16.902 4.99,-3.93 14.07,-7.188 27.23,-9.75 l 43.08,-8.469 c 22.62,-4.332 38.41,-10.492 47.38,-18.5 8.97,-7.992 13.46,-19.539 13.46,-34.66 0,-19.43 -7.41,-34.52 -22.2,-45.25 -14.81,-10.743 -35.72,-16.11 -62.77,-16.11 -29.15,0 -51.22,5.981 -66.2,17.961 -14.97,11.977 -22.64,29.809 -22.99,53.477"
         style="fill:#000000;fill-opacity:1;fill-rule:nonzero;stroke:none"
         id="path48" />
      <path
         d="m 2807.05,371.449 v 81.653 l -87.74,114.378 h 33.67 l 67.6,-91.191 68.12,91.191 h 33.13 l -87.07,-114.378 v -81.653 h -27.71"
         style="fill:#000000;fill-opacity:1;fill-rule:nonzero;stroke:none"
         id="path50" />
      <path
         d="m 3551.87,447.129 c -2.66,-24.559 -12.97,-44.18 -30.95,-58.848 -17.99,-14.66 -40.8,-22 -68.46,-22 -32.96,0 -59.07,9.278 -78.33,27.84 -19.27,18.551 -28.9,43.649 -28.9,75.277 0,31.622 9.66,56.743 28.97,75.352 19.3,18.602 45.48,27.891 78.52,27.891 27.13,0 49.55,-7 67.27,-21 17.71,-14.012 27.59,-32.45 29.62,-55.34 h -28.76 c -2.74,15.73 -10.16,28.039 -22.27,36.918 -12.11,8.871 -27.48,13.312 -46.12,13.312 -24.65,0 -43.9,-6.812 -57.72,-20.41 -13.83,-13.609 -20.74,-32.512 -20.74,-56.723 0,-24.117 6.93,-42.988 20.8,-56.597 13.88,-13.602 33.18,-20.41 57.92,-20.41 19,0 34.88,4.98 47.66,14.91 12.76,9.937 20.34,23.219 22.73,39.828 h 28.76"
         style="fill:#000000;fill-opacity:1;fill-rule:nonzero;stroke:none"
         id="path52" />
      <path
         d="m 3789.87,452.832 h 77.01 l -37.37,83.629 z m -67.06,-81.383 93.04,196.031 h 29.03 l 87.21,-196.031 h -28.76 l -25.05,55.93 h -100.07 l -26.11,-55.93 h -29.29"
         style="fill:#000000;fill-opacity:1;fill-rule:nonzero;stroke:none"
         id="path54" />
      <path
         d="m 4207.88,543.762 h -62.42 V 479.73 h 64.8 c 19.61,0 33.31,2.442 41.09,7.301 7.77,4.848 11.67,13.11 11.67,24.778 0,11.843 -3.85,20.121 -11.54,24.851 -7.69,4.719 -22.22,7.102 -43.6,7.102 z M 4118.02,371.449 V 567.48 h 103.11 c 22.71,0 39.98,-4.55 51.83,-13.648 11.83,-9.113 17.75,-22.41 17.75,-39.91 0,-12.543 -2.8,-22.781 -8.41,-30.742 -5.62,-7.961 -14.03,-13.7 -25.25,-17.231 9.89,-1.5 17.16,-5.117 21.81,-10.859 4.64,-5.758 7.39,-14.551 8.28,-26.379 l 2.38,-31.672 c 0.62,-7.348 1.46,-12.738 2.52,-16.18 1.06,-3.449 2.61,-6.578 4.64,-9.41 h -32.34 c -0.97,2.211 -1.72,4.871 -2.25,7.961 -0.54,3.082 -0.98,7.238 -1.33,12.449 l -2.38,29.032 c -1.15,13.519 -4.49,22.679 -10.01,27.5 -5.53,4.808 -15.3,7.218 -29.36,7.218 h -73.55 v -84.16 h -27.44"
         style="fill:#000000;fill-opacity:1;fill-rule:nonzero;stroke:none"
         id="path56" />
      <path
         d="m 4652.78,505.582 c -3.71,13.07 -11.35,23.18 -22.93,30.289 -11.58,7.121 -26.2,10.66 -43.86,10.66 -22.81,0 -40.8,-6.902 -54.02,-20.742 -13.2,-13.828 -19.81,-32.629 -19.81,-56.391 0,-23.589 6.58,-42.328 19.74,-56.199 13.18,-13.867 30.93,-20.808 53.29,-20.808 20.14,0 36.73,5.281 49.76,15.851 13.04,10.547 20.44,24.719 22.21,42.477 H 4595 v 25.832 h 87.87 V 371.449 h -19.22 l -2.78,32.871 c -7.61,-12.461 -17.87,-21.91 -30.82,-28.359 -12.95,-6.449 -27.99,-9.68 -45.13,-9.68 -30.4,0 -54.78,9.418 -73.16,28.231 -18.38,18.828 -27.57,43.789 -27.57,74.886 0,31.813 9.33,56.973 27.97,75.481 18.64,18.523 43.95,27.762 75.95,27.762 25.26,0 46.58,-6.309 63.94,-18.95 17.36,-12.64 27.01,-28.66 28.97,-48.109 h -28.24"
         style="fill:#000000;fill-opacity:1;fill-rule:nonzero;stroke:none"
         id="path58" />
      <path
         d="m 4934.53,452.832 h 77.01 l -37.38,83.629 z m -67.06,-81.383 93.04,196.031 h 29.02 l 87.22,-196.031 h -28.76 l -25.05,55.93 h -100.07 l -26.11,-55.93 h -29.29"
         style="fill:#000000;fill-opacity:1;fill-rule:nonzero;stroke:none"
         id="path60" />
      <path
         d="M 5515.92,371.449 V 567.48 h 27.7 V 397.82 h 119.95 v -26.371 h -147.65"
         style="fill:#000000;fill-opacity:1;fill-rule:nonzero;stroke:none"
         id="path62" />
      <path
         d="M 5854.66,371.449 V 567.48 h 27.7 V 371.449 h -27.7"
         style="fill:#000000;fill-opacity:1;fill-rule:nonzero;stroke:none"
         id="path64" />
      <path
         d="m 6153.91,371.449 -85.76,196.031 h 29.56 l 72.5,-171.109 72.24,171.109 h 30.09 l -86.55,-196.031 h -32.08"
         style="fill:#000000;fill-opacity:1;fill-rule:nonzero;stroke:none"
         id="path66" />
      <path
         d="M 6458.19,371.449 V 567.48 h 27.7 V 371.449 h -27.7"
         style="fill:#000000;fill-opacity:1;fill-rule:nonzero;stroke:none"
         id="path68" />
      <path
         d="m 6738.75,452.832 h 77.01 l -37.38,83.629 z m -67.06,-81.383 93.04,196.031 h 29.02 l 87.22,-196.031 h -28.76 l -25.05,55.93 h -100.07 l -26.11,-55.93 h -29.29"
         style="fill:#000000;fill-opacity:1;fill-rule:nonzero;stroke:none"
         id="path70" />
      <path
         d="M 7066.88,371.449 V 567.48 h 37.51 l 123.4,-167.269 V 567.48 h 26.91 V 371.449 h -37.39 L 7094.05,538.711 V 371.449 h -27.17"
         style="fill:#000000;fill-opacity:1;fill-rule:nonzero;stroke:none"
         id="path72" />
      <path
         d="m 7505.83,452.832 h 77 l -37.37,83.629 z m -67.07,-81.383 93.05,196.031 h 29.02 l 87.22,-196.031 h -28.76 l -25.05,55.93 h -100.07 l -26.11,-55.93 h -29.3"
         style="fill:#000000;fill-opacity:1;fill-rule:nonzero;stroke:none"
         id="path74" />
      <path
         d="M 494.246,1627.49 367.191,1407.44 c -7.89,-13.59 -23.171,-18.67 -36.554,-15.08 -10.188,76.02 -18.582,178.99 -10.887,283.77 h 146.426 c 24.972,0 40.558,-27.07 28.07,-48.64"
         style="fill:#68228d;fill-opacity:1;fill-rule:nonzero;stroke:none"
         id="path76" />
    </g>
  </g>
</svg>
